<?xml version="1.0" encoding="UTF-8"?>
<svg xmlns="http://www.w3.org/2000/svg" xmlns:xlink="http://www.w3.org/1999/xlink" viewBox="0 0 32 32" width="32px" height="32px">
<g id="surface92167727">
<path style=" stroke:none;fill-rule:nonzero;fill:rgb(98.823529%,79.607844%,27.843139%);fill-opacity:1;" d="M 16 1.28125 C 7.878906 1.28125 1.28125 7.878906 1.28125 16 C 1.28125 24.121094 7.878906 30.71875 16 30.71875 C 24.121094 30.71875 30.71875 24.121094 30.71875 16 C 30.71875 7.878906 24.121094 1.28125 16 1.28125 Z M 16 2.558594 C 23.429688 2.558594 29.441406 8.570312 29.441406 16 C 29.441406 16.046875 29.4375 16.089844 29.4375 16.136719 C 29.027344 16.097656 28.554688 16.0625 27.953125 16.042969 C 27.101562 16.011719 26.03125 16.019531 24.816406 16.078125 C 24.859375 15.765625 24.890625 15.449219 24.890625 15.121094 C 24.953125 13.921875 24.550781 12.800781 23.898438 11.8125 C 24.054688 11.265625 24.242188 10.570312 24.289062 9.78125 C 24.339844 8.882812 24.261719 7.886719 23.542969 7.210938 L 23.355469 7.039062 L 23.105469 7.039062 C 21.386719 7.039062 20.210938 7.757812 19.492188 8.328125 C 18.453125 7.925781 17.289062 7.679688 16 7.679688 C 14.703125 7.679688 13.527344 7.929688 12.445312 8.332031 C 11.726562 7.761719 10.550781 7.039062 8.832031 7.039062 L 8.582031 7.039062 L 8.394531 7.210938 C 7.695312 7.863281 7.628906 8.832031 7.671875 9.726562 C 7.710938 10.515625 7.886719 11.234375 8.042969 11.804688 C 7.375 12.816406 6.976562 13.964844 6.976562 15.105469 C 6.976562 15.429688 7.007812 15.75 7.050781 16.066406 C 5.894531 16.011719 4.867188 16 4.046875 16.03125 C 3.445312 16.050781 2.972656 16.085938 2.5625 16.125 C 2.5625 16.082031 2.558594 16.042969 2.558594 16 C 2.558594 8.570312 8.570312 2.558594 16 2.558594 Z M 9.214844 8.402344 C 10.503906 8.527344 11.476562 9.101562 11.925781 9.503906 L 12.226562 9.765625 L 12.597656 9.617188 C 13.609375 9.199219 14.738281 8.960938 16 8.960938 C 17.261719 8.960938 18.390625 9.199219 19.328125 9.609375 L 19.703125 9.773438 L 20.007812 9.503906 C 20.457031 9.101562 21.433594 8.527344 22.722656 8.402344 C 22.894531 8.6875 23.042969 9.09375 23.007812 9.707031 C 22.964844 10.441406 22.769531 11.238281 22.621094 11.710938 L 22.523438 12.019531 L 22.714844 12.28125 C 23.347656 13.144531 23.671875 14.082031 23.617188 15.070312 L 23.617188 15.105469 C 23.617188 16.699219 23.042969 17.980469 21.816406 18.925781 C 20.589844 19.875 18.65625 20.480469 15.9375 20.480469 C 13.214844 20.480469 11.28125 19.875 10.054688 18.925781 C 8.832031 17.980469 8.257812 16.699219 8.257812 15.105469 C 8.257812 14.167969 8.59375 13.136719 9.21875 12.28125 L 9.40625 12.027344 L 9.316406 11.722656 C 9.167969 11.21875 8.988281 10.402344 8.953125 9.664062 C 8.921875 9.050781 9.066406 8.664062 9.214844 8.402344 Z M 5.6875 16.652344 C 6.136719 16.660156 6.65625 16.683594 7.175781 16.710938 C 7.226562 16.910156 7.28125 17.105469 7.351562 17.296875 C 5.234375 17.34375 3.652344 17.554688 2.675781 17.738281 C 2.632812 17.417969 2.601562 17.09375 2.582031 16.765625 C 3.304688 16.699219 4.320312 16.636719 5.6875 16.652344 Z M 26.3125 16.664062 C 27.679688 16.644531 28.695312 16.710938 29.417969 16.777344 C 29.398438 17.101562 29.367188 17.417969 29.324219 17.734375 C 28.3125 17.546875 26.6875 17.335938 24.515625 17.300781 C 24.582031 17.113281 24.640625 16.921875 24.6875 16.726562 C 25.261719 16.695312 25.820312 16.671875 26.3125 16.664062 Z M 7.625 17.933594 C 8.003906 18.699219 8.550781 19.382812 9.273438 19.9375 C 10.257812 20.699219 11.539062 21.234375 13.105469 21.519531 C 12.898438 21.730469 12.714844 21.960938 12.546875 22.203125 L 12.511719 22.171875 C 12.511719 22.164062 12.191406 22.328125 11.710938 22.371094 C 11.230469 22.414062 10.636719 22.398438 10.113281 22.398438 C 9.328125 22.398438 8.984375 22.03125 8.429688 21.355469 C 8.125 20.941406 7.753906 20.609375 7.390625 20.355469 C 7.019531 20.097656 6.703125 19.914062 6.3125 19.847656 L 6.261719 19.839844 L 6.207031 19.839844 C 5.910156 19.839844 5.621094 19.863281 5.351562 20.171875 C 5.214844 20.324219 5.121094 20.609375 5.183594 20.851562 C 5.242188 21.09375 5.394531 21.242188 5.53125 21.332031 C 6.40625 21.914062 6.5625 23.070312 7.109375 24.097656 C 7.621094 25.117188 8.726562 25.601562 9.855469 25.601562 L 11.519531 25.601562 L 11.519531 28.671875 C 7.019531 27.085938 3.625 23.171875 2.773438 18.371094 C 3.753906 18.183594 5.394531 17.964844 7.625 17.933594 Z M 24.246094 17.9375 C 26.523438 17.957031 28.210938 18.179688 29.230469 18.367188 C 28.378906 23.167969 24.980469 27.085938 20.480469 28.671875 L 20.480469 25.34375 C 20.480469 24.328125 20.148438 23.210938 19.566406 22.277344 C 19.390625 21.996094 19.183594 21.726562 18.953125 21.488281 C 20.433594 21.195312 21.652344 20.671875 22.601562 19.9375 C 23.320312 19.382812 23.863281 18.699219 24.246094 17.9375 Z M 15.167969 21.824219 L 16.960938 21.824219 C 17.480469 21.824219 18.035156 22.238281 18.480469 22.953125 C 18.925781 23.667969 19.199219 24.628906 19.199219 25.34375 L 19.199219 29.054688 C 18.175781 29.304688 17.101562 29.441406 16 29.441406 C 14.898438 29.441406 13.824219 29.304688 12.800781 29.054688 L 12.800781 25.34375 C 12.800781 24.644531 13.097656 23.6875 13.574219 22.96875 C 14.046875 22.25 14.648438 21.824219 15.167969 21.824219 Z M 7.878906 22.578125 C 8.429688 23.15625 9.101562 23.679688 10.113281 23.679688 C 10.609375 23.679688 11.234375 23.699219 11.824219 23.644531 C 11.828125 23.644531 11.828125 23.644531 11.832031 23.644531 C 11.753906 23.867188 11.695312 24.09375 11.644531 24.320312 L 9.855469 24.320312 C 9.066406 24.320312 8.507812 24.035156 8.253906 23.519531 L 8.246094 23.511719 L 8.242188 23.503906 C 8.136719 23.308594 8 22.917969 7.878906 22.578125 Z M 7.878906 22.578125 "/>
</g>
</svg>
