<?xml version="1.0" encoding="UTF-8"?>
<svg xmlns="http://www.w3.org/2000/svg" xmlns:xlink="http://www.w3.org/1999/xlink" viewBox="0 0 32 32" width="32px" height="32px">
<g id="surface92165791">
<path style=" stroke:none;fill-rule:nonzero;fill:rgb(98.823529%,79.607844%,27.843139%);fill-opacity:1;" d="M 5.761719 2.558594 C 4 2.558594 2.558594 4 2.558594 5.761719 L 2.558594 26.238281 C 2.558594 28 4 29.441406 5.761719 29.441406 L 26.238281 29.441406 C 28 29.441406 29.441406 28 29.441406 26.238281 L 29.441406 5.761719 C 29.441406 4 28 2.558594 26.238281 2.558594 Z M 5.761719 3.839844 L 26.238281 3.839844 C 27.308594 3.839844 28.160156 4.691406 28.160156 5.761719 L 28.160156 26.238281 C 28.160156 27.308594 27.308594 28.160156 26.238281 28.160156 L 5.761719 28.160156 C 4.691406 28.160156 3.839844 27.308594 3.839844 26.238281 L 3.839844 5.761719 C 3.839844 4.691406 4.691406 3.839844 5.761719 3.839844 Z M 8.960938 7.046875 C 8.257812 7.046875 7.628906 7.257812 7.160156 7.648438 C 6.695312 8.042969 6.40625 8.628906 6.40625 9.257812 C 6.40625 10.453125 7.445312 11.386719 8.761719 11.476562 C 8.761719 11.476562 8.765625 11.476562 8.765625 11.480469 C 8.828125 11.5 8.894531 11.511719 8.960938 11.511719 C 10.414062 11.511719 11.511719 10.492188 11.511719 9.257812 C 11.511719 9.246094 11.511719 9.234375 11.511719 9.226562 C 11.445312 8.007812 10.363281 7.046875 8.960938 7.046875 Z M 8.960938 8.3125 C 9.851562 8.3125 10.203125 8.710938 10.242188 9.273438 C 10.234375 9.824219 9.894531 10.246094 8.960938 10.246094 C 8.074219 10.246094 7.671875 9.792969 7.671875 9.257812 C 7.671875 8.992188 7.769531 8.789062 7.976562 8.617188 C 8.179688 8.445312 8.507812 8.3125 8.960938 8.3125 Z M 7.039062 12.160156 C 6.6875 12.160156 6.398438 12.445312 6.398438 12.800781 L 6.398438 24.960938 C 6.398438 25.3125 6.6875 25.601562 7.039062 25.601562 L 10.878906 25.601562 C 11.234375 25.601562 11.519531 25.3125 11.519531 24.960938 L 11.519531 12.800781 C 11.519531 12.445312 11.234375 12.160156 10.878906 12.160156 Z M 12.800781 12.160156 C 12.445312 12.160156 12.160156 12.445312 12.160156 12.800781 L 12.160156 24.960938 C 12.160156 25.3125 12.445312 25.601562 12.800781 25.601562 L 16.640625 25.601562 C 16.992188 25.601562 17.28125 25.3125 17.28125 24.960938 L 17.28125 18.558594 C 17.28125 18.027344 17.425781 17.5 17.679688 17.15625 C 17.933594 16.808594 18.257812 16.601562 18.867188 16.613281 C 19.5 16.625 19.832031 16.839844 20.085938 17.179688 C 20.339844 17.519531 20.480469 18.027344 20.480469 18.558594 L 20.480469 24.960938 C 20.480469 25.3125 20.765625 25.601562 21.121094 25.601562 L 24.960938 25.601562 C 25.3125 25.601562 25.601562 25.3125 25.601562 24.960938 L 25.601562 18.085938 C 25.601562 16.191406 25.039062 14.691406 24.078125 13.675781 C 23.113281 12.660156 21.777344 12.160156 20.359375 12.160156 C 19.015625 12.160156 17.992188 12.609375 17.28125 13.070312 L 17.28125 12.800781 C 17.28125 12.445312 16.992188 12.160156 16.640625 12.160156 Z M 7.679688 13.441406 L 10.238281 13.441406 L 10.238281 24.320312 L 7.679688 24.320312 Z M 13.441406 13.441406 L 16 13.441406 L 16 14.4375 C 16 14.714844 16.175781 14.957031 16.4375 15.046875 C 16.699219 15.132812 16.984375 15.042969 17.152344 14.824219 C 17.152344 14.824219 18.15625 13.441406 20.359375 13.441406 C 21.480469 13.441406 22.445312 13.8125 23.148438 14.554688 C 23.851562 15.296875 24.320312 16.441406 24.320312 18.085938 L 24.320312 24.320312 L 21.761719 24.320312 L 21.761719 18.558594 C 21.761719 17.8125 21.582031 17.042969 21.113281 16.414062 C 20.644531 15.785156 19.859375 15.347656 18.890625 15.332031 C 17.917969 15.316406 17.117188 15.761719 16.648438 16.394531 C 16.179688 17.03125 16 17.8125 16 18.558594 L 16 24.320312 L 13.441406 24.320312 Z M 13.441406 13.441406 "/>
</g>
</svg>
